<mxfile host="app.diagrams.net" agent="Mozilla/5.0 (X11; Linux x86_64; rv:140.0) Gecko/20100101 Firefox/140.0" version="28.1.0">
  <diagram name="Page-1" id="XFUrZwZGvd99JWziBd34">
    <mxGraphModel dx="632" dy="403" grid="1" gridSize="10" guides="0" tooltips="1" connect="1" arrows="1" fold="1" page="1" pageScale="1" pageWidth="850" pageHeight="1100" math="0" shadow="0">
      <root>
        <mxCell id="0" />
        <mxCell id="1" parent="0" />
        <mxCell id="LB5dJMt6oOY0LlYt9chd-16" value="" style="rounded=1;whiteSpace=wrap;html=1;fillColor=none;strokeColor=light-dark(#B46504,#FF4149);dashed=1;dashPattern=8 8;" parent="1" vertex="1">
          <mxGeometry x="400" y="280" width="130" height="140" as="geometry" />
        </mxCell>
        <mxCell id="LB5dJMt6oOY0LlYt9chd-14" value="" style="rounded=1;whiteSpace=wrap;html=1;fillColor=none;strokeColor=light-dark(#000000,#FF643A);dashed=1;perimeterSpacing=0;strokeWidth=1;dashPattern=8 8;" parent="1" vertex="1">
          <mxGeometry x="190" y="280" width="130" height="140" as="geometry" />
        </mxCell>
        <mxCell id="LB5dJMt6oOY0LlYt9chd-1" value="&lt;span style=&quot;color: light-dark(rgb(180, 101, 4), rgb(255, 31, 87));&quot;&gt;CHR Internet&lt;/span&gt;" style="rounded=1;whiteSpace=wrap;html=1;strokeColor=light-dark(#B46504,#FF1F57);fillColor=light-dark(#000000,#1A1A1A);" parent="1" vertex="1">
          <mxGeometry x="320" y="180" width="80" height="40" as="geometry" />
        </mxCell>
        <mxCell id="LB5dJMt6oOY0LlYt9chd-2" value="&lt;span style=&quot;color: light-dark(rgb(0, 0, 0), rgb(255, 100, 58));&quot;&gt;CHR-A&lt;/span&gt;" style="rounded=1;whiteSpace=wrap;html=1;strokeColor=light-dark(#000000,#FF643A);" parent="1" vertex="1">
          <mxGeometry x="210" y="310" width="70" height="30" as="geometry" />
        </mxCell>
        <mxCell id="LB5dJMt6oOY0LlYt9chd-3" value="&lt;span style=&quot;color: light-dark(rgb(180, 101, 4), rgb(255, 65, 73));&quot;&gt;CHR-B&lt;/span&gt;" style="rounded=1;whiteSpace=wrap;html=1;strokeColor=light-dark(#B46504,#FF4149);" parent="1" vertex="1">
          <mxGeometry x="440" y="310" width="70" height="30" as="geometry" />
        </mxCell>
        <mxCell id="LB5dJMt6oOY0LlYt9chd-4" value="" style="endArrow=none;html=1;rounded=0;exitX=0.75;exitY=0;exitDx=0;exitDy=0;entryX=0.25;entryY=1;entryDx=0;entryDy=0;strokeColor=light-dark(#000000,#FF643A);" parent="1" source="LB5dJMt6oOY0LlYt9chd-2" target="LB5dJMt6oOY0LlYt9chd-1" edge="1">
          <mxGeometry width="50" height="50" relative="1" as="geometry">
            <mxPoint x="340" y="320" as="sourcePoint" />
            <mxPoint x="390" y="270" as="targetPoint" />
          </mxGeometry>
        </mxCell>
        <mxCell id="LB5dJMt6oOY0LlYt9chd-5" value="" style="endArrow=none;html=1;rounded=0;entryX=0.75;entryY=1;entryDx=0;entryDy=0;exitX=0.25;exitY=0;exitDx=0;exitDy=0;strokeColor=light-dark(#B46504,#FF4149);" parent="1" source="LB5dJMt6oOY0LlYt9chd-3" target="LB5dJMt6oOY0LlYt9chd-1" edge="1">
          <mxGeometry width="50" height="50" relative="1" as="geometry">
            <mxPoint x="350" y="280" as="sourcePoint" />
            <mxPoint x="400" y="230" as="targetPoint" />
          </mxGeometry>
        </mxCell>
        <mxCell id="LB5dJMt6oOY0LlYt9chd-6" value="&lt;span style=&quot;color: light-dark(rgb(255, 255, 255), rgb(255, 134, 44));&quot;&gt;LXC-B&lt;/span&gt;" style="rounded=1;whiteSpace=wrap;html=1;strokeColor=light-dark(#FFFFFF,#FF862C);fillColor=light-dark(#000000,#1A1A1A);" parent="1" vertex="1">
          <mxGeometry x="430" y="390" width="50" height="20" as="geometry" />
        </mxCell>
        <mxCell id="LB5dJMt6oOY0LlYt9chd-7" value="" style="endArrow=none;html=1;rounded=0;entryX=0.5;entryY=1;entryDx=0;entryDy=0;exitX=0.5;exitY=0;exitDx=0;exitDy=0;strokeColor=light-dark(#FFFFFF,#FF862C);" parent="1" source="LB5dJMt6oOY0LlYt9chd-6" edge="1">
          <mxGeometry width="50" height="50" relative="1" as="geometry">
            <mxPoint x="540" y="340" as="sourcePoint" />
            <mxPoint x="485" y="340" as="targetPoint" />
          </mxGeometry>
        </mxCell>
        <mxCell id="LB5dJMt6oOY0LlYt9chd-8" value="&lt;pre&gt;&lt;font style=&quot;font-size: 7px;&quot;&gt;203.0.113.1/30&lt;/font&gt;&lt;/pre&gt;" style="text;html=1;align=center;verticalAlign=middle;whiteSpace=wrap;rounded=0;" parent="1" vertex="1">
          <mxGeometry x="270" y="220" width="60" height="10" as="geometry" />
        </mxCell>
        <mxCell id="LB5dJMt6oOY0LlYt9chd-9" value="&lt;pre&gt;&lt;font style=&quot;font-size: 7px;&quot;&gt;203.0.113.5/30&lt;/font&gt;&lt;/pre&gt;" style="text;html=1;align=center;verticalAlign=middle;whiteSpace=wrap;rounded=0;" parent="1" vertex="1">
          <mxGeometry x="390" y="220" width="60" height="10" as="geometry" />
        </mxCell>
        <mxCell id="LB5dJMt6oOY0LlYt9chd-10" value="&lt;pre&gt;&lt;font style=&quot;font-size: 7px;&quot;&gt;203.0.113.2/30&lt;/font&gt;&lt;/pre&gt;" style="text;html=1;align=center;verticalAlign=middle;whiteSpace=wrap;rounded=0;" parent="1" vertex="1">
          <mxGeometry x="205" y="297" width="60" height="10" as="geometry" />
        </mxCell>
        <mxCell id="LB5dJMt6oOY0LlYt9chd-11" value="&lt;pre&gt;&lt;font style=&quot;font-size: 7px;&quot;&gt;203.0.113.6/30&lt;/font&gt;&lt;/pre&gt;" style="text;html=1;align=center;verticalAlign=middle;whiteSpace=wrap;rounded=0;" parent="1" vertex="1">
          <mxGeometry x="457" y="297" width="60" height="10" as="geometry" />
        </mxCell>
        <mxCell id="LB5dJMt6oOY0LlYt9chd-12" value="&lt;span style=&quot;color: light-dark(rgb(255, 255, 255), rgb(255, 199, 31));&quot;&gt;LXC-A&lt;/span&gt;" style="rounded=1;whiteSpace=wrap;html=1;strokeColor=light-dark(#FFFFFF,#FFC71F);fillColor=light-dark(#000000,#1A1A1A);" parent="1" vertex="1">
          <mxGeometry x="240" y="390" width="50" height="20" as="geometry" />
        </mxCell>
        <mxCell id="LB5dJMt6oOY0LlYt9chd-13" value="" style="endArrow=none;html=1;rounded=0;entryX=0.5;entryY=1;entryDx=0;entryDy=0;exitX=0.5;exitY=0;exitDx=0;exitDy=0;strokeColor=light-dark(#FFFFFF,#FFC71F);" parent="1" source="LB5dJMt6oOY0LlYt9chd-12" target="LB5dJMt6oOY0LlYt9chd-24" edge="1">
          <mxGeometry width="50" height="50" relative="1" as="geometry">
            <mxPoint x="300" y="370" as="sourcePoint" />
            <mxPoint x="265" y="340" as="targetPoint" />
          </mxGeometry>
        </mxCell>
        <mxCell id="LB5dJMt6oOY0LlYt9chd-15" value="&lt;span style=&quot;color: light-dark(rgb(0, 0, 0), rgb(255, 100, 58));&quot;&gt;Office A&lt;/span&gt;" style="text;html=1;align=center;verticalAlign=middle;whiteSpace=wrap;rounded=0;" parent="1" vertex="1">
          <mxGeometry x="230" y="260" width="50" height="20" as="geometry" />
        </mxCell>
        <mxCell id="LB5dJMt6oOY0LlYt9chd-17" value="&lt;span style=&quot;color: light-dark(rgb(180, 101, 4), rgb(255, 65, 73));&quot;&gt;Office B&lt;/span&gt;" style="text;html=1;align=center;verticalAlign=middle;whiteSpace=wrap;rounded=0;" parent="1" vertex="1">
          <mxGeometry x="440" y="260" width="50" height="20" as="geometry" />
        </mxCell>
        <mxCell id="LB5dJMt6oOY0LlYt9chd-19" value="" style="endArrow=none;dashed=1;html=1;rounded=0;exitX=1;exitY=0.5;exitDx=0;exitDy=0;entryX=0;entryY=0.5;entryDx=0;entryDy=0;strokeColor=default;strokeWidth=1;" parent="1" source="LB5dJMt6oOY0LlYt9chd-2" target="LB5dJMt6oOY0LlYt9chd-3" edge="1">
          <mxGeometry width="50" height="50" relative="1" as="geometry">
            <mxPoint x="370" y="340" as="sourcePoint" />
            <mxPoint x="420" y="290" as="targetPoint" />
          </mxGeometry>
        </mxCell>
        <mxCell id="LB5dJMt6oOY0LlYt9chd-20" value="&lt;pre&gt;&lt;font style=&quot;font-size: 7px;&quot;&gt;10.255.255.1/24&lt;/font&gt;&lt;/pre&gt;" style="text;html=1;align=center;verticalAlign=middle;whiteSpace=wrap;rounded=0;perimeterSpacing=2;" parent="1" vertex="1">
          <mxGeometry x="282" y="312" width="60" height="10" as="geometry" />
        </mxCell>
        <mxCell id="LB5dJMt6oOY0LlYt9chd-21" value="&lt;pre&gt;&lt;font style=&quot;font-size: 7px;&quot;&gt;10.255.255.2/24&lt;/font&gt;&lt;/pre&gt;" style="text;html=1;align=center;verticalAlign=middle;whiteSpace=wrap;rounded=0;perimeterSpacing=2;" parent="1" vertex="1">
          <mxGeometry x="378" y="312" width="60" height="10" as="geometry" />
        </mxCell>
        <mxCell id="LB5dJMt6oOY0LlYt9chd-22" value="" style="endArrow=none;dashed=1;html=1;rounded=0;exitX=1;exitY=0.5;exitDx=0;exitDy=0;entryX=0;entryY=0.5;entryDx=0;entryDy=0;strokeColor=default;strokeWidth=1;" parent="1" source="LB5dJMt6oOY0LlYt9chd-24" target="LB5dJMt6oOY0LlYt9chd-23" edge="1">
          <mxGeometry width="50" height="50" relative="1" as="geometry">
            <mxPoint x="370" y="340" as="sourcePoint" />
            <mxPoint x="420" y="290" as="targetPoint" />
          </mxGeometry>
        </mxCell>
        <mxCell id="LB5dJMt6oOY0LlYt9chd-23" value="&lt;span style=&quot;color: light-dark(rgb(180, 101, 4), rgb(255, 65, 73));&quot;&gt;CHR-B&lt;/span&gt;" style="rounded=1;whiteSpace=wrap;html=1;strokeColor=light-dark(#B46504,#FF4149);fillColor=light-dark(#000000,#1A1A1A);" parent="1" vertex="1">
          <mxGeometry x="440" y="310" width="70" height="30" as="geometry" />
        </mxCell>
        <mxCell id="LB5dJMt6oOY0LlYt9chd-24" value="&lt;span style=&quot;color: light-dark(rgb(0, 0, 0), rgb(255, 100, 58));&quot;&gt;CHR-A&lt;/span&gt;" style="rounded=1;whiteSpace=wrap;html=1;strokeColor=light-dark(#000000,#FF643A);fillColor=light-dark(#000000,#1A1A1A);" parent="1" vertex="1">
          <mxGeometry x="210" y="310" width="70" height="30" as="geometry" />
        </mxCell>
        <mxCell id="LB5dJMt6oOY0LlYt9chd-25" value="IPIP Tunnel" style="text;html=1;align=center;verticalAlign=middle;whiteSpace=wrap;rounded=0;" parent="1" vertex="1">
          <mxGeometry x="326" y="330" width="70" height="10" as="geometry" />
        </mxCell>
        <mxCell id="LB5dJMt6oOY0LlYt9chd-27" value="&lt;pre&gt;&lt;font style=&quot;font-size: 7px;&quot;&gt;192.168.10.1/24&lt;/font&gt;&lt;/pre&gt;" style="text;html=1;align=center;verticalAlign=middle;whiteSpace=wrap;rounded=0;perimeterSpacing=2;" parent="1" vertex="1">
          <mxGeometry x="250" y="338" width="60" height="10" as="geometry" />
        </mxCell>
        <mxCell id="LB5dJMt6oOY0LlYt9chd-28" value="&lt;pre&gt;&lt;font style=&quot;font-size: 7px;&quot;&gt;192.168.20.1/24&lt;/font&gt;&lt;/pre&gt;" style="text;html=1;align=center;verticalAlign=middle;whiteSpace=wrap;rounded=0;perimeterSpacing=2;" parent="1" vertex="1">
          <mxGeometry x="418" y="338" width="60" height="10" as="geometry" />
        </mxCell>
      </root>
    </mxGraphModel>
  </diagram>
</mxfile>
